# xmcd
# Track frame offsets:
# 150
# 14817
# 27774
# 41461
# 55899
# 68050
# 95315
# 116148
# 134780
# 155711
# 173164
# 189777
# 206811
# 233078
# 250844
# 267754
#
# Disc length: 4022 seconds
# Revision: 0
# Processed by: cddbd v1.5.1PL0 Copyright (c) Steve Scherf et al.
# Submitted via: VisiTrax 2.9.3.171 - For more info visit www.synapsa.com
#
DISCID=e00fb410
DTITLE=Eric Clapton - Blues In The Hall  Disc 1
DYEAR=1998
DGENRE=Blues
TTITLE0=Motherless Child
TTITLE1=Malted Milk.
TTITLE2=From Four Till Late
TTITLE3=How Long.
TTITLE4=Kidman Blues
TTITLE5=County Jail
TTITLE6=44
TTITLE7=Blues All Day Long.
TTITLE8=Standin' Round Cryin
TTITLE9=Hoochie Coochie Man
TTITLE10=It Hurts Me Too.
TTITLE11=Blues Before Sunrise
TTITLE12=Third Degree
TTITLE13=Reconsider Baby
TTITLE14=Sinners Prayer.
TTITLE15=Everyday I Have The Blues
EXTD=
EXTT0=
EXTT1=
EXTT2=
EXTT3=
EXTT4=
EXTT5=
EXTT6=
EXTT7=
EXTT8=
EXTT9=
EXTT10=
EXTT11=
EXTT12=
EXTT13=
EXTT14=
EXTT15=
PLAYORDER=
